<svg width="62" height="10" viewBox="0 0 62 10" fill="none" xmlns="http://www.w3.org/2000/svg">
<path d="M57.2068 1.14163L58.0028 3.59141L58.082 3.83518H58.3383H60.9142L58.8302 5.34923L58.6229 5.49988L58.7021 5.74365L59.4981 8.19343L57.4142 6.67938L57.2068 6.52873L56.9994 6.67938L54.9155 8.19343L55.7115 5.74365L55.7907 5.49988L55.5834 5.34923L53.4995 3.83518H56.0753H56.3316L56.4108 3.59141L57.2068 1.14163Z" fill="white" stroke="#818080" stroke-width="0.7"/>
<path d="M44.1034 1.14163L44.8994 3.59141L44.9786 3.83518H45.2349H47.8108L45.7268 5.34923L45.5195 5.49988L45.5987 5.74365L46.3947 8.19343L44.3108 6.67938L44.1034 6.52873L43.896 6.67938L41.8121 8.19343L42.6081 5.74365L42.6873 5.49988L42.48 5.34923L40.3961 3.83518H42.9719H43.2282L43.3074 3.59141L44.1034 1.14163Z" fill="white" stroke="#818080" stroke-width="0.7"/>
<path d="M31 1.14163L31.796 3.59141L31.8752 3.83518H32.1315H34.7073L32.6234 5.34923L32.4161 5.49988L32.4953 5.74365L33.2913 8.19343L31.2074 6.67938L31 6.52873L30.7926 6.67938L28.7087 8.19343L29.5047 5.74365L29.5839 5.49988L29.3766 5.34923L27.2927 3.83518H29.8685H30.1248L30.204 3.59141L31 1.14163Z" fill="white" stroke="#818080" stroke-width="0.7"/>
<path d="M17.8966 1.14163L18.6926 3.59141L18.7718 3.83518H19.0281H21.6039L19.52 5.34923L19.3127 5.49988L19.3919 5.74365L20.1879 8.19343L18.104 6.67938L17.8966 6.52873L17.6892 6.67938L15.6053 8.19343L16.4013 5.74365L16.4805 5.49988L16.2732 5.34923L14.1892 3.83518H16.7651H17.0214L17.1006 3.59141L17.8966 1.14163Z" fill="white" stroke="#818080" stroke-width="0.7"/>
<path d="M4.7932 1.14163L5.58918 3.59141L5.66838 3.83518H5.92469H8.50054L6.41664 5.34923L6.20928 5.49988L6.28848 5.74365L7.08446 8.19343L5.00056 6.67938L4.7932 6.52873L4.58583 6.67938L2.50193 8.19343L3.29791 5.74365L3.37711 5.49988L3.16975 5.34923L1.08585 3.83518H3.6617H3.91801L3.99721 3.59141L4.7932 1.14163Z" fill="white" stroke="#818080" stroke-width="0.7"/>
</svg>
