<svg width="65" height="12" viewBox="0 0 65 12" fill="none" xmlns="http://www.w3.org/2000/svg">
<path d="M6.24296 1.14382L7.38057 4.64501L7.45993 4.88925H7.71673H11.3981L8.41981 7.05311L8.21205 7.20405L8.29141 7.44829L9.42902 10.9495L6.45072 8.78562L6.24296 8.63468L6.03521 8.78562L3.05691 10.9495L4.19452 7.44829L4.27388 7.20405L4.06612 7.05311L1.08782 4.88925H4.7692H5.026L5.10536 4.64501L6.24296 1.14382Z" fill="#FC833D" stroke="#BA5A23" stroke-width="0.7"/>
<path d="M19.3715 1.14382L20.5091 4.64501L20.5884 4.88925H20.8452H24.5266L21.5483 7.05311L21.3406 7.20405L21.4199 7.44829L22.5575 10.9495L19.5792 8.78562L19.3715 8.63468L19.1637 8.78562L16.1854 10.9495L17.323 7.44829L17.4024 7.20405L17.1946 7.05311L14.2163 4.88925H17.8977H18.1545L18.2339 4.64501L19.3715 1.14382Z" fill="#FC833D" stroke="#BA5A23" stroke-width="0.7"/>
<path d="M32.5 1.14382L33.6376 4.64501L33.7169 4.88925H33.9738H37.6551L34.6768 7.05311L34.4691 7.20405L34.5484 7.44829L35.686 10.9495L32.7077 8.78562L32.5 8.63468L32.2922 8.78562L29.3139 10.9495L30.4515 7.44829L30.5309 7.20405L30.3231 7.05311L27.3448 4.88925H31.0262H31.283L31.3624 4.64501L32.5 1.14382Z" fill="#FC833D" stroke="#BA5A23" stroke-width="0.7"/>
<path d="M45.6285 1.14382L46.7661 4.64501L46.8455 4.88925H47.1023H50.7836L47.8053 7.05311L47.5976 7.20405L47.6769 7.44829L48.8145 10.9495L45.8363 8.78562L45.6285 8.63468L45.4207 8.78562L42.4424 10.9495L43.58 7.44829L43.6594 7.20405L43.4516 7.05311L40.4734 4.88925H44.1547H44.4115L44.4909 4.64501L45.6285 1.14382Z" fill="white" stroke="#818080" stroke-width="0.7"/>
<path d="M58.757 1.14382L59.8946 4.64501L59.974 4.88925H60.2308H63.9121L60.9339 7.05311L60.7261 7.20405L60.8055 7.44829L61.9431 10.9495L58.9648 8.78562L58.757 8.63468L58.5492 8.78562L55.571 10.9495L56.7086 7.44829L56.7879 7.20405L56.5802 7.05311L53.6019 4.88925H57.2832H57.54L57.6194 4.64501L58.757 1.14382Z" fill="white" stroke="#818080" stroke-width="0.7"/>
</svg>
