<svg width="23" height="25" viewBox="0 0 23 25" fill="none" xmlns="http://www.w3.org/2000/svg">
<rect width="23" height="24.0455" rx="5" fill="#CD5815"/>
<path d="M14.6464 19.3536C14.8417 19.5488 15.1583 19.5488 15.3536 19.3536L18.5355 16.1716C18.7308 15.9763 18.7308 15.6597 18.5355 15.4645C18.3403 15.2692 18.0237 15.2692 17.8284 15.4645L15 18.2929L12.1716 15.4645C11.9763 15.2692 11.6597 15.2692 11.4645 15.4645C11.2692 15.6597 11.2692 15.9763 11.4645 16.1716L14.6464 19.3536ZM14.5 6V19H15.5V6H14.5Z" fill="white"/>
<path d="M8.35355 5.64645C8.15829 5.45118 7.84171 5.45118 7.64645 5.64645L4.46447 8.82843C4.2692 9.02369 4.2692 9.34027 4.46447 9.53553C4.65973 9.7308 4.97631 9.7308 5.17157 9.53553L8 6.70711L10.8284 9.53553C11.0237 9.7308 11.3403 9.7308 11.5355 9.53553C11.7308 9.34027 11.7308 9.02369 11.5355 8.82843L8.35355 5.64645ZM8.5 19V6H7.5L7.5 19H8.5Z" fill="white"/>
</svg>
